<svg width="32.000000" height="32.000000" viewBox="0 0 32 32" fill="none" xmlns="http://www.w3.org/2000/svg" xmlns:xlink="http://www.w3.org/1999/xlink">
	<desc>
			Created with Pixso.
	</desc>
	<defs>
		<clipPath id="clip20_10">
			<rect id="svg" width="32.000000" height="32.000000" fill="white" fill-opacity="0"/>
		</clipPath>
		<linearGradient x1="0.000001" y1="0.000001" x2="31.999998" y2="31.999998" id="paint_linear_20_11_0" gradientUnits="userSpaceOnUse">
			<stop stop-color="#3B82F6"/>
			<stop offset="1.000000" stop-color="#8B5CF6"/>
		</linearGradient>
	</defs>
	<g clip-path="url(#clip20_10)">
		<rect id="rect" rx="8.000000" width="32.000000" height="32.000000" fill="url(#paint_linear_20_11_0)" fill-opacity="1.000000"/>
		<path id="path" d="M21.98 6.51L22 6.5C22.84 6.5 23.5 7.16 23.5 8C23.5 8.84 22.84 9.5 22 9.5L21.98 9.48L21.98 6.51ZM18.98 14.52L19 14.5C19.84 14.5 20.5 15.16 20.5 16C20.5 16.84 19.84 17.5 19 17.5L18.98 17.48L18.98 14.52ZM21.98 22.52L22 22.5C22.84 22.5 23.5 23.16 23.5 24C23.5 24.84 22.84 25.5 22 25.5L21.98 25.48L21.98 22.52Z" fill="#000000" fill-opacity="0" fill-rule="nonzero"/>
		<path id="path" d="M22 8C22 8 14 8 13 8C11 8 9 10 9 12C9 14 11 16 13 16L19 16M13 16C11 16 9 18 9 20C9 22 11 24 13 24L22 24" stroke="#FFFFFF" stroke-opacity="1.000000" stroke-width="3.000000" stroke-linejoin="round" stroke-linecap="round"/>
	</g>
</svg>
